<?xml version="1.0" encoding="UTF-8" standalone="no"?>
<!DOCTYPE svg PUBLIC "-//W3C//DTD SVG 1.1//EN"
 "http://www.w3.org/Graphics/SVG/1.1/DTD/svg11.dtd">
<!-- Generated by graphviz version 13.1.2 (20250808.2320)
 -->
<!-- Title: packages_my_module01 Pages: 1 -->
<svg width="518pt" height="188pt"
 viewBox="0.00 0.00 518.00 188.00" xmlns="http://www.w3.org/2000/svg" xmlns:xlink="http://www.w3.org/1999/xlink">
<g id="graph0" class="graph" transform="scale(1 1) rotate(0) translate(4 184)">
<title>packages_my_module01</title>
<polygon fill="white" stroke="none" points="-4,4 -4,-184 513.62,-184 513.62,4 -4,4"/>
<!-- my_module01 -->
<g id="node1" class="node">
<title>my_module01</title>
<polygon fill="none" stroke="black" points="168.75,-36 73.25,-36 73.25,0 168.75,0 168.75,-36"/>
<text xml:space="preserve" text-anchor="start" x="81.25" y="-12.95" font-family="Times,serif" font-size="14.00">my_module01</text>
</g>
<!-- my_module01.__version__ -->
<g id="node3" class="node">
<title>my_module01.__version__</title>
<polygon fill="none" stroke="black" points="166,-180 0,-180 0,-144 166,-144 166,-180"/>
<text xml:space="preserve" text-anchor="start" x="8" y="-156.95" font-family="Times,serif" font-size="14.00">my_module01.__version__</text>
</g>
<!-- my_module01&#45;&gt;my_module01.__version__ -->
<g id="edge1" class="edge">
<title>my_module01&#45;&gt;my_module01.__version__</title>
<path fill="none" stroke="black" d="M116.34,-36.41C109.87,-60.6 98.08,-104.64 90.4,-133.35"/>
<polygon fill="black" stroke="black" points="87.89,-142.71 86.13,-131.89 88.87,-139.06 90.48,-133.05 90.48,-133.05 90.48,-133.05 88.87,-139.06 94.83,-134.22 87.89,-142.71"/>
</g>
<!-- my_module01._base -->
<g id="node4" class="node">
<title>my_module01._base</title>
<polygon fill="none" stroke="black" points="279,-108 149,-108 149,-72 279,-72 279,-108"/>
<text xml:space="preserve" text-anchor="start" x="157" y="-84.95" font-family="Times,serif" font-size="14.00">my_module01._base</text>
</g>
<!-- my_module01&#45;&gt;my_module01._base -->
<g id="edge2" class="edge">
<title>my_module01&#45;&gt;my_module01._base</title>
<path fill="none" stroke="black" d="M143.99,-36.3C155.5,-44.97 169.63,-55.6 182.16,-65.04"/>
<polygon fill="black" stroke="black" points="189.98,-70.92 179.28,-68.5 186.96,-68.65 181.99,-64.91 181.99,-64.91 181.99,-64.91 186.96,-68.65 184.7,-61.31 189.98,-70.92"/>
</g>
<!-- my_module01.config -->
<g id="node6" class="node">
<title>my_module01.config</title>
<polygon fill="none" stroke="black" points="317.88,-180 184.12,-180 184.12,-144 317.88,-144 317.88,-180"/>
<text xml:space="preserve" text-anchor="start" x="192.12" y="-156.95" font-family="Times,serif" font-size="14.00">my_module01.config</text>
</g>
<!-- my_module01&#45;&gt;my_module01.config -->
<g id="edge3" class="edge">
<title>my_module01&#45;&gt;my_module01.config</title>
<path fill="none" stroke="black" d="M120.37,-36.28C120.55,-55.72 123.66,-87.28 140,-108 150.36,-121.14 164.77,-131.19 179.79,-138.83"/>
<polygon fill="black" stroke="black" points="188.61,-142.99 177.64,-142.79 185.19,-141.37 179.56,-138.72 179.56,-138.72 179.56,-138.72 185.19,-141.37 181.48,-134.65 188.61,-142.99"/>
</g>
<!-- my_module01.__main__ -->
<g id="node2" class="node">
<title>my_module01.__main__</title>
<polygon fill="none" stroke="black" points="362,-36 208,-36 208,0 362,0 362,-36"/>
<text xml:space="preserve" text-anchor="start" x="216" y="-12.95" font-family="Times,serif" font-size="14.00">my_module01.__main__</text>
</g>
<!-- my_module01.__main__&#45;&gt;my_module01._base -->
<g id="edge4" class="edge">
<title>my_module01.__main__&#45;&gt;my_module01._base</title>
<path fill="none" stroke="black" d="M267.45,-36.3C258.94,-44.7 248.56,-54.93 239.22,-64.14"/>
<polygon fill="black" stroke="black" points="232.22,-71.04 236.18,-60.81 234.91,-68.39 239.34,-64.02 239.34,-64.02 239.34,-64.02 234.91,-68.39 242.5,-67.22 232.22,-71.04"/>
</g>
<!-- my_module01.__main__&#45;&gt;my_module01.config -->
<g id="edge5" class="edge">
<title>my_module01.__main__&#45;&gt;my_module01.config</title>
<path fill="none" stroke="black" d="M288.89,-36.19C292.28,-54.45 295.56,-83.96 288,-108 285,-117.54 279.6,-126.86 273.84,-134.96"/>
<polygon fill="black" stroke="black" points="267.78,-142.88 270.29,-132.2 270.08,-139.88 273.86,-134.94 273.86,-134.94 273.86,-134.94 270.08,-139.88 277.43,-137.68 267.78,-142.88"/>
</g>
<!-- my_module01._base&#45;&gt;my_module01.__version__ -->
<g id="edge6" class="edge">
<title>my_module01._base&#45;&gt;my_module01.__version__</title>
<path fill="none" stroke="black" d="M181.28,-108.48C164.27,-117.57 143.29,-128.78 125.09,-138.51"/>
<polygon fill="black" stroke="black" points="116.38,-143.17 123.08,-134.48 119.71,-141.38 125.2,-138.45 125.2,-138.45 125.2,-138.45 119.71,-141.38 127.32,-142.42 116.38,-143.17"/>
</g>
<!-- my_module01._base&#45;&gt;my_module01.config -->
<g id="edge7" class="edge">
<title>my_module01._base&#45;&gt;my_module01.config</title>
<path fill="none" stroke="black" d="M223.15,-108.3C227.27,-116.1 232.23,-125.49 236.82,-134.17"/>
<polygon fill="black" stroke="black" points="241.39,-142.82 232.74,-136.08 239.62,-139.48 236.72,-133.98 236.72,-133.98 236.72,-133.98 239.62,-139.48 240.7,-131.87 241.39,-142.82"/>
</g>
<!-- my_module01._utils -->
<g id="node5" class="node">
<title>my_module01._utils</title>
<polygon fill="none" stroke="black" points="509.62,-36 380.38,-36 380.38,0 509.62,0 509.62,-36"/>
<text xml:space="preserve" text-anchor="start" x="388.38" y="-12.95" font-family="Times,serif" font-size="14.00">my_module01._utils</text>
</g>
</g>
</svg>
