<?xml version="1.0" encoding="UTF-8" standalone="no"?>
<!DOCTYPE svg PUBLIC "-//W3C//DTD SVG 1.1//EN"
 "http://www.w3.org/Graphics/SVG/1.1/DTD/svg11.dtd">
<!-- Generated by graphviz version 13.1.2 (20250808.2320)
 -->
<!-- Title: classes_my_module01 Pages: 1 -->
<svg width="1573pt" height="437pt"
 viewBox="0.00 0.00 1573.00 437.00" xmlns="http://www.w3.org/2000/svg" xmlns:xlink="http://www.w3.org/1999/xlink">
<g id="graph0" class="graph" transform="scale(1 1) rotate(0) translate(4 432.5)">
<title>classes_my_module01</title>
<polygon fill="white" stroke="none" points="-4,4 -4,-432.5 1568.75,-432.5 1568.75,4 -4,4"/>
<!-- my_module01._base.MyClass -->
<g id="node1" class="node">
<title>my_module01._base.MyClass</title>
<polygon fill="none" stroke="black" points="603.38,-338 603.38,-428 961.38,-428 961.38,-338 603.38,-338"/>
<text xml:space="preserve" text-anchor="start" x="758" y="-410.7" font-family="Times,serif" font-size="14.00">MyClass</text>
<polyline fill="none" stroke="black" points="603.38,-403.5 961.38,-403.5"/>
<text xml:space="preserve" text-anchor="start" x="765.12" y="-386.2" font-family="Times,serif" font-size="14.00">config</text>
<text xml:space="preserve" text-anchor="start" x="765.12" y="-369.7" font-family="Times,serif" font-size="14.00">items</text>
<polyline fill="none" stroke="black" points="603.38,-362.5 961.38,-362.5"/>
<text xml:space="preserve" text-anchor="start" x="611.38" y="-345.2" font-family="Times,serif" font-size="14.00">run(items: list[float] | None, threshold: float | None): list[float]</text>
</g>
<!-- my_module01.config.MyClassCliConfig -->
<g id="node2" class="node">
<title>my_module01.config.MyClassCliConfig</title>
<polygon fill="none" stroke="black" points="0,-0.5 0,-90.5 1564.75,-90.5 1564.75,-0.5 0,-0.5"/>
<text xml:space="preserve" text-anchor="start" x="731" y="-73.2" font-family="Times,serif" font-size="14.00">MyClassCliConfig</text>
<polyline fill="none" stroke="black" points="0,-66 1564.75,-66"/>
<text xml:space="preserve" text-anchor="start" x="686.75" y="-48.7" font-family="Times,serif" font-size="14.00">items : Optional[list[float]]</text>
<text xml:space="preserve" text-anchor="start" x="686.75" y="-32.2" font-family="Times,serif" font-size="14.00">model_config : SettingsConfigDict</text>
<polyline fill="none" stroke="black" points="0,-25 1564.75,-25"/>
<text xml:space="preserve" text-anchor="start" x="8" y="-7.7" font-family="Times,serif" font-size="14.00">settings_customise_sources(settings_cls: type[BaseSettings], init_settings: PydanticBaseSettingsSource, env_settings: PydanticBaseSettingsSource, dotenv_settings: PydanticBaseSettingsSource, file_secret_settings: PydanticBaseSettingsSource): tuple[PydanticBaseSettingsSource, ...]</text>
</g>
<!-- my_module01.config.MyClassConfigPM -->
<g id="node3" class="node">
<title>my_module01.config.MyClassConfigPM</title>
<polygon fill="none" stroke="black" points="698.25,-128.5 698.25,-284.5 866.5,-284.5 866.5,-128.5 698.25,-128.5"/>
<text xml:space="preserve" text-anchor="start" x="729.12" y="-267.2" font-family="Times,serif" font-size="14.00">MyClassConfigPM</text>
<polyline fill="none" stroke="black" points="698.25,-260 866.5,-260"/>
<text xml:space="preserve" text-anchor="start" x="706.25" y="-242.7" font-family="Times,serif" font-size="14.00">max_length : Optional[int]</text>
<text xml:space="preserve" text-anchor="start" x="706.25" y="-226.2" font-family="Times,serif" font-size="14.00">max_value : Optional[float]</text>
<text xml:space="preserve" text-anchor="start" x="706.25" y="-209.7" font-family="Times,serif" font-size="14.00">min_length : Optional[int]</text>
<text xml:space="preserve" text-anchor="start" x="706.25" y="-193.2" font-family="Times,serif" font-size="14.00">min_value : Optional[float]</text>
<text xml:space="preserve" text-anchor="start" x="706.25" y="-176.7" font-family="Times,serif" font-size="14.00">model_config : ConfigDict</text>
<text xml:space="preserve" text-anchor="start" x="706.25" y="-160.2" font-family="Times,serif" font-size="14.00">threshold : Optional[float]</text>
<polyline fill="none" stroke="black" points="698.25,-153 866.5,-153"/>
<text xml:space="preserve" text-anchor="start" x="780.5" y="-135.7" font-family="Times,serif" font-size="14.00"> </text>
</g>
<!-- my_module01.config.MyClassCliConfig&#45;&gt;my_module01.config.MyClassConfigPM -->
<g id="edge1" class="edge">
<title>my_module01.config.MyClassCliConfig&#45;&gt;my_module01.config.MyClassConfigPM</title>
<path fill="none" stroke="black" d="M782.38,-90.79C782.38,-99 782.38,-107.83 782.38,-116.82"/>
<polygon fill="none" stroke="black" points="778.88,-116.74 782.38,-126.74 785.88,-116.74 778.88,-116.74"/>
</g>
<!-- my_module01.config.MyClassConfigPM&#45;&gt;my_module01._base.MyClass -->
<g id="edge2" class="edge">
<title>my_module01.config.MyClassConfigPM&#45;&gt;my_module01._base.MyClass</title>
<path fill="none" stroke="black" d="M782.38,-284.8C782.38,-298.2 782.38,-311.91 782.38,-324.66"/>
<polygon fill="black" stroke="black" points="782.38,-324.63 786.38,-330.63 782.38,-336.63 778.38,-330.63 782.38,-324.63"/>
<text xml:space="preserve" text-anchor="middle" x="799.62" y="-306.2" font-family="Times,serif" font-size="14.00" fill="green">config</text>
</g>
</g>
</svg>
